<svg xmlns="http://www.w3.org/2000/svg" width="24" height="18.018" viewBox="0 0 24 18.018">
  <g id="iconfinder_00-ELASTOFONT-STORE-READY_sliders_2738302" transform="translate(-1 -3.991)">
    <path id="Path_4357" data-name="Path 4357" d="M1.75,7.75H8.43a2.994,2.994,0,0,0,5.805,0H24.25a.75.75,0,0,0,0-1.5H14.236a2.994,2.994,0,0,0-5.805,0H1.75a.75.75,0,0,0,0,1.5Zm9.583-2.259A1.509,1.509,0,1,1,9.824,7,1.51,1.51,0,0,1,11.333,5.491Z" fill="#6a8991"/>
    <path id="Path_4358" data-name="Path 4358" d="M24.25,12.25H22.644a2.994,2.994,0,0,0-5.805,0H1.75a.75.75,0,0,0,0,1.5H16.839a2.994,2.994,0,0,0,5.805,0H24.25a.75.75,0,0,0,0-1.5Zm-4.509,2.259A1.509,1.509,0,1,1,21.25,13,1.51,1.51,0,0,1,19.741,14.509Z" fill="#6a8991"/>
    <path id="Path_4359" data-name="Path 4359" d="M24.25,18.25H9.718a2.994,2.994,0,0,0-5.8,0H1.75a.75.75,0,0,0,0,1.5H3.914a2.994,2.994,0,0,0,5.8,0H24.25a.75.75,0,0,0,0-1.5ZM6.816,20.509A1.509,1.509,0,1,1,8.324,19,1.51,1.51,0,0,1,6.816,20.509Z" fill="#6a8991"/>
  </g>
</svg>
