<svg xmlns="http://www.w3.org/2000/svg" width="14" height="14.14" viewBox="0 0 14 14.14">
  <g id="set-alarm" transform="translate(-2.55)">
    <g id="access-alarms" transform="translate(2.55)">
      <path id="Path_4378" data-name="Path 4378" d="M16.55,2.73,13.33,0l-.91,1.05,3.22,2.73ZM6.68,1.12,5.77.07,2.55,2.73l.91,1.05ZM9.9,4.34H8.85v4.2l3.29,2.03.56-.84L9.9,8.05Zm-.35-2.8a6.3,6.3,0,1,0,6.3,6.3A6.274,6.274,0,0,0,9.55,1.54Zm0,11.2a4.9,4.9,0,1,1,4.9-4.9A4.87,4.87,0,0,1,9.55,12.74Z" transform="translate(-2.55)" fill="#4594e0"/>
    </g>
  </g>
</svg>
