<svg xmlns="http://www.w3.org/2000/svg" width="16.151" height="16.002" viewBox="0 0 16.151 16.002">
  <g id="flag" transform="translate(-80.333)">
    <g id="Group_3770" data-name="Group 3770" transform="translate(80.333)">
      <path id="Path_4367" data-name="Path 4367" d="M96.149.951A6.572,6.572,0,0,0,92.672,0,15.747,15.747,0,0,0,88.21.882a14.517,14.517,0,0,1-4.066.824h0a5.238,5.238,0,0,1-2.432-.569V.69a.69.69,0,1,0-1.379,0V15.313a.69.69,0,1,0,1.379,0V10.246a6.662,6.662,0,0,0,2.432.439A15.745,15.745,0,0,0,88.606,9.8a14.514,14.514,0,0,1,4.066-.824,5.23,5.23,0,0,1,2.767.755.69.69,0,0,0,1.044-.591v-7.6A.689.689,0,0,0,96.149.951ZM88.21,8.482a14.515,14.515,0,0,1-4.066.824,5.24,5.24,0,0,1-2.432-.569V2.646a6.659,6.659,0,0,0,2.432.438h0A15.747,15.747,0,0,0,88.606,2.2a14.516,14.516,0,0,1,4.066-.824,5.24,5.24,0,0,1,2.432.569V8.039A6.661,6.661,0,0,0,92.672,7.6,15.744,15.744,0,0,0,88.21,8.482Z" transform="translate(-80.333)" fill="#ccc"/>
    </g>
  </g>
</svg>
