<svg xmlns="http://www.w3.org/2000/svg" width="11.64" height="11.66" viewBox="0 0 11.64 11.66">
  <path id="iconfinder_phone-call_3324964" d="M8.669,3.027a2.534,2.534,0,0,1,2,2M8.669,1A4.562,4.562,0,0,1,12.7,5.024m-.507,4.045v1.521a1.014,1.014,0,0,1-1.1,1.014,10.03,10.03,0,0,1-4.374-1.556A9.883,9.883,0,0,1,3.672,7.006,10.03,10.03,0,0,1,2.116,2.612a1.014,1.014,0,0,1,1.009-1.1H4.645a1.014,1.014,0,0,1,1.014.872A6.508,6.508,0,0,0,6.014,3.8a1.014,1.014,0,0,1-.228,1.069l-.644.644A8.109,8.109,0,0,0,8.183,8.557l.644-.644A1.014,1.014,0,0,1,9.9,7.685a6.508,6.508,0,0,0,1.424.355,1.014,1.014,0,0,1,.872,1.029Z" transform="translate(-1.612 -0.448)" fill="none" stroke="#6a8991" stroke-linecap="round" stroke-linejoin="round" stroke-width="1"/>
</svg>
