<svg xmlns="http://www.w3.org/2000/svg" width="10.553" height="12.52" viewBox="0 0 10.553 12.52">
  <g id="_1" data-name="1" transform="translate(-65.59 -48)">
    <path id="Path_4361" data-name="Path 4361" d="M73.156,138.929h-7.1a.467.467,0,0,1-.467-.467V129.4a.467.467,0,0,1,.467-.467h7.1a.467.467,0,0,1,.467.467v9.065A.467.467,0,0,1,73.156,138.929ZM66.524,138h6.164v-8.131H66.524Z" transform="translate(0 -78.409)" fill="#a4bbc1"/>
    <path id="Path_4362" data-name="Path 4362" d="M154.086,58h-2.52a.467.467,0,1,1,0-.934h2.053V48.934h-6.164v2.053a.467.467,0,0,1-.934,0v-2.52a.467.467,0,0,1,.467-.467h7.1a.467.467,0,0,1,.467.467v9.065A.467.467,0,0,1,154.086,58Z" transform="translate(-78.41)" fill="#a4bbc1"/>
  </g>
</svg>
