<svg xmlns="http://www.w3.org/2000/svg" width="13.965" height="17.194" viewBox="0 0 13.965 17.194">
  <g id="delete" transform="translate(0.003 0.001)">
    <path id="Path_4363" data-name="Path 4363" d="M222.8,154.7a.4.4,0,0,0-.4.4v7.61a.4.4,0,0,0,.805,0v-7.61A.4.4,0,0,0,222.8,154.7Zm0,0" transform="translate(-213.446 -148.475)" fill="#e57777"/>
    <path id="Path_4364" data-name="Path 4364" d="M104.8,154.7a.4.4,0,0,0-.4.4v7.61a.4.4,0,0,0,.805,0v-7.61A.4.4,0,0,0,104.8,154.7Zm0,0" transform="translate(-100.198 -148.475)" fill="#e57777"/>
    <path id="Path_4365" data-name="Path 4365" d="M1.14,5.118v9.921a2.222,2.222,0,0,0,.591,1.532,1.983,1.983,0,0,0,1.439.622h7.619a1.982,1.982,0,0,0,1.439-.622,2.222,2.222,0,0,0,.591-1.532V5.118a1.538,1.538,0,0,0-.395-3.025H10.362v-.5A1.582,1.582,0,0,0,8.767,0H5.191A1.582,1.582,0,0,0,3.6,1.589v.5H1.535A1.538,1.538,0,0,0,1.14,5.118Zm9.648,11.27H3.17a1.275,1.275,0,0,1-1.224-1.349V5.153H12.012v9.886A1.275,1.275,0,0,1,10.788,16.387ZM4.4,1.589A.776.776,0,0,1,5.191.8H8.767a.776.776,0,0,1,.789.785v.5H4.4ZM1.535,2.9H12.423a.725.725,0,0,1,0,1.45H1.535a.725.725,0,0,1,0-1.45Zm0,0" transform="translate(0 0)" fill="#e57777"/>
    <path id="Path_4366" data-name="Path 4366" d="M163.8,154.7a.4.4,0,0,0-.4.4v7.61a.4.4,0,0,0,.805,0v-7.61A.4.4,0,0,0,163.8,154.7Zm0,0" transform="translate(-156.822 -148.475)" fill="#e57777"/>
  </g>
</svg>
