<svg xmlns="http://www.w3.org/2000/svg" width="191" height="37.279" viewBox="0 0 191 37.279"><defs><style>.a,.d{fill:#00a1ed;}.b,.e{fill:#45aa56;}.c{fill:#fff;}.d,.e{opacity:0.5;}</style></defs><g transform="translate(-133.251 -254.716)"><g transform="translate(173.686 263.585)"><path class="a" d="M259.022,296.912H249.36l-1.391,3.1H244.5l9.6-20.826h.19l9.6,20.826h-3.47Zm-1.243-2.747L254.2,286.19l-3.593,7.975Z" transform="translate(-244.499 -279.162)"/><path class="b" d="M323.97,279.117v20.852h-3.206V288.651l-6.772,10.975h-.026l-6.786-10.989v11.331h-3.2V279.117h.239l9.762,14.838,9.749-14.838Z" transform="translate(-282.36 -279.117)"/><path class="a" d="M366.984,289.933a10.665,10.665,0,0,1,10.533-10.572,10.314,10.314,0,0,1,7.089,3.115l-1.86,2.52a7.587,7.587,0,0,0-5.294-2.381,7.312,7.312,0,0,0,.013,14.623,7.594,7.594,0,0,0,5.294-2.431l1.846,2.583a9.727,9.727,0,0,1-7.037,3.063A10.623,10.623,0,0,1,366.984,289.933Z" transform="translate(-322.465 -279.272)"/><g transform="translate(69.827 0.026)"><path class="c" d="M436.613,280.338h6.824a6.983,6.983,0,0,1,7.176,6.736c0,3.633-3.228,6.6-7.176,6.6h-3.622v7.077h-3.2Zm10.8,6.71a3.776,3.776,0,0,0-3.974-3.531h-3.622v6.976l3.622.011A3.735,3.735,0,0,0,447.411,287.048Z" transform="translate(-436.613 -279.92)"/><path class="c" d="M481.555,296.912h-9.662l-1.391,3.1h-3.47l9.6-20.826h.19l9.6,20.826h-3.47Zm-1.243-2.747-3.583-7.975-3.593,7.975Z" transform="translate(-455.976 -279.188)"/><path class="c" d="M542.92,279.664v20.815h-.152l-13.055-13.635V300.15h-3.2V279.361h.165l13.026,13.61V279.664Z" transform="translate(-493.837 -279.298)"/><path class="c" d="M585.561,283.49v5.228h7.722v3.191h-7.722v5.646h8.952v3.191H582.359V280.338h12.154v3.152Z" transform="translate(-529.385 -279.92)"/><path class="c" d="M637.2,297.555v3.191H624.892V280.338h3.2v17.217Z" transform="translate(-556.459 -279.92)"/></g></g><g transform="translate(133.251 254.716)"><path class="a" d="M139.831,297.561h-.983c-.983,0-1.376-1.663-.589-2.253l2.429-1.5a2.787,2.787,0,0,1,1.006-3.827l7.932-4.579-12.192-7.039a2.789,2.789,0,0,0-4.183,2.415v23.237a2.789,2.789,0,0,0,4.183,2.415l2.886-1.666a3.667,3.667,0,0,1-.489-1.789Z" transform="translate(-133.251 -269.527)"/><path class="b" d="M190.494,278.362,178.3,285.4l7.932,4.579a2.788,2.788,0,0,1,1.02,3.808l2.483,1.519c.688.59.3,2.253-.59,2.253h-.983v5.413a3.673,3.673,0,0,1-.506,1.819l2.834,1.636a2.789,2.789,0,0,0,4.183-2.415V280.778A2.789,2.789,0,0,0,190.494,278.362Z" transform="translate(-161.928 -269.527)"/><path class="d" d="M153.04,306.8l7.695-4.754a2.23,2.23,0,0,1,2.457,0l7.739,4.735a2.788,2.788,0,0,0-1.02-3.808l-7.932-4.579-7.932,4.579A2.787,2.787,0,0,0,153.04,306.8Z" transform="translate(-145.604 -282.516)"/><path class="e" d="M153.04,306.8l7.695-4.754a2.23,2.23,0,0,1,2.457,0l7.739,4.735a2.788,2.788,0,0,0-1.02-3.808l-7.932-4.579-7.932,4.579A2.787,2.787,0,0,0,153.04,306.8Z" transform="translate(-145.604 -282.516)"/><circle class="b" cx="4" cy="4" r="4" transform="translate(0)"/><circle class="a" cx="3.843" cy="3.843" r="3.843" transform="translate(25.064)"/></g></g></svg>