<svg xmlns="http://www.w3.org/2000/svg" width="179.642" height="34.068" viewBox="0 0 179.642 34.068">
  <g id="Group_11" data-name="Group 11" transform="translate(-637.767 -379.991)">
    <g id="Group_9" data-name="Group 9" transform="translate(-2 -2.332)">
      <path id="Path_32" data-name="Path 32" d="M678.111,408.35h.486a1.111,1.111,0,0,0,.9-.3,1.578,1.578,0,0,0,.243-.986v-13.17a1.239,1.239,0,0,0-.243-.843,1.007,1.007,0,0,0-.786-.271h-.6v-2.029h3.943l.285,2.057a6.165,6.165,0,0,1,9.357-.628,7.819,7.819,0,0,1,1.614,5.285,8.509,8.509,0,0,1-1.572,5.485,5.435,5.435,0,0,1-4.484,1.943,6.458,6.458,0,0,1-2.586-.457,5.592,5.592,0,0,1-1.985-1.572v4.2a1.579,1.579,0,0,0,.242.986,1.111,1.111,0,0,0,.9.3h.486v2.057h-6.2Zm11.328-6.9a6.753,6.753,0,0,0,.9-3.956,6.538,6.538,0,0,0-.857-3.814,3.321,3.321,0,0,0-2.857-1.157,3.547,3.547,0,0,0-2.828,1.185,4.649,4.649,0,0,0-1.029,3.157v1.6a4.354,4.354,0,0,0,1.029,3.114,3.563,3.563,0,0,0,2.714,1.086A3.4,3.4,0,0,0,689.439,401.45Z" fill="#232b35"/>
      <path id="Path_33" data-name="Path 33" d="M695.2,402.35h.715a.894.894,0,0,0,1.057-1.057v-7.371a1.175,1.175,0,0,0-.229-.8.988.988,0,0,0-.771-.258h-.6v-2.114h3.942l.4,1.572a3.006,3.006,0,0,1,1.471-1.229,5.98,5.98,0,0,1,2.128-.343h1.314v2.114h-1.6a3.076,3.076,0,0,0-2.314.729,3.178,3.178,0,0,0-.685,2.243v5.456a1.167,1.167,0,0,0,.228.814,1.025,1.025,0,0,0,.771.243h.714v2.114H695.2Z" fill="#232b35"/>
      <path id="Path_34" data-name="Path 34" d="M707.28,402.979a7.564,7.564,0,0,1-1.772-5.343,7.7,7.7,0,0,1,1.758-5.385,8.168,8.168,0,0,1,10.541,0,7.7,7.7,0,0,1,1.757,5.385,7.569,7.569,0,0,1-1.771,5.343,8.175,8.175,0,0,1-10.513,0Zm8.313-1.486a6.143,6.143,0,0,0,1-3.857,6.263,6.263,0,0,0-1-3.9,3.652,3.652,0,0,0-3.057-1.272,3.61,3.61,0,0,0-3.042,1.272,6.334,6.334,0,0,0-.986,3.9,6.212,6.212,0,0,0,.986,3.857,3.624,3.624,0,0,0,3.042,1.257A3.666,3.666,0,0,0,715.593,401.493Z" fill="#232b35"/>
      <path id="Path_35" data-name="Path 35" d="M721.449,402.35h.715a.895.895,0,0,0,1.057-1.057v-7.371a1.078,1.078,0,0,0-.244-.785,1.121,1.121,0,0,0-.813-.243h-.572v-2.143h3.571l.2,1.943a4.922,4.922,0,0,1,1.929-1.785,6.166,6.166,0,0,1,2.813-.586,4.016,4.016,0,0,1,2.172.571,3.511,3.511,0,0,1,1.371,1.629,4.452,4.452,0,0,1,1.757-1.671,5.744,5.744,0,0,1,2.614-.529,4.334,4.334,0,0,1,3.386,1.171,5.154,5.154,0,0,1,1.042,3.514v6.285a.919.919,0,0,0,1.057,1.057h.8v2.114h-4.856v-9.456a3.006,3.006,0,0,0-.544-2.028,2.369,2.369,0,0,0-1.828-.6,2.829,2.829,0,0,0-2.071.743,2.907,2.907,0,0,0-.757,2.171v6a1.224,1.224,0,0,0,.214.814.974.974,0,0,0,.757.243h.771v2.114h-4.57v-9.37a3.2,3.2,0,0,0-.543-2.057,2.1,2.1,0,0,0-1.714-.657,2.914,2.914,0,0,0-2.2.8,3.246,3.246,0,0,0-.771,2.342v5.771a1.224,1.224,0,0,0,.214.814.974.974,0,0,0,.757.243h.772v2.114h-6.486Z" fill="#232b35"/>
      <path id="Path_36" data-name="Path 36" d="M745.618,402.35h.828a1.087,1.087,0,0,0,.815-.257,1.178,1.178,0,0,0,.242-.829v-7.342a1.077,1.077,0,0,0-.242-.785,1.126,1.126,0,0,0-.815-.243h-.828v-2.143h4.942v10.542a.92.92,0,0,0,1.057,1.057h.829v2.114h-6.828Z" fill="#232b35"/>
      <path id="Path_37" data-name="Path 37" d="M754.045,403.236v-2.228h2.8v1.142a5.568,5.568,0,0,0,2.857.686,3.7,3.7,0,0,0,1.928-.4,1.428,1.428,0,0,0,.643-1.314,1.463,1.463,0,0,0-.329-.986,2.659,2.659,0,0,0-.9-.657q-.57-.271-2.256-.957a24.728,24.728,0,0,1-2.586-1.186,4.37,4.37,0,0,1-1.456-1.271,3.227,3.227,0,0,1-.558-1.942,3.179,3.179,0,0,1,1.457-2.843,7.164,7.164,0,0,1,3.972-.957,10.532,10.532,0,0,1,3,.414,7.605,7.605,0,0,1,2.428,1.186v2.142H762.3v-1.057a4.632,4.632,0,0,0-2.457-.628,3.7,3.7,0,0,0-1.928.4,1.456,1.456,0,0,0-.643,1.343,1.519,1.519,0,0,0,.685,1.328,9.721,9.721,0,0,0,2.115.986,8.532,8.532,0,0,1,.885.314,20.11,20.11,0,0,1,2.371,1.057,4.32,4.32,0,0,1,1.457,1.285,3.407,3.407,0,0,1,.572,2.029,3.209,3.209,0,0,1-1.386,2.8,7.32,7.32,0,0,1-4.185.972A9.529,9.529,0,0,1,754.045,403.236Z" fill="#232b35"/>
      <path id="Path_38" data-name="Path 38" d="M766.53,403.236v-2.228h2.8v1.142a5.568,5.568,0,0,0,2.857.686,3.7,3.7,0,0,0,1.928-.4,1.43,1.43,0,0,0,.643-1.314,1.468,1.468,0,0,0-.329-.986,2.659,2.659,0,0,0-.9-.657q-.571-.271-2.256-.957a24.728,24.728,0,0,1-2.586-1.186,4.384,4.384,0,0,1-1.457-1.271,3.233,3.233,0,0,1-.557-1.942,3.181,3.181,0,0,1,1.456-2.843,7.168,7.168,0,0,1,3.972-.957,10.526,10.526,0,0,1,3,.414,7.594,7.594,0,0,1,2.428,1.186v2.142h-2.742v-1.057a4.626,4.626,0,0,0-2.456-.628,3.708,3.708,0,0,0-1.929.4,1.456,1.456,0,0,0-.643,1.343,1.519,1.519,0,0,0,.686,1.328,9.709,9.709,0,0,0,2.114.986,8.453,8.453,0,0,1,.885.314,20.057,20.057,0,0,1,2.372,1.057,4.328,4.328,0,0,1,1.457,1.285,3.414,3.414,0,0,1,.571,2.029,3.207,3.207,0,0,1-1.386,2.8,7.319,7.319,0,0,1-4.185.972A9.526,9.526,0,0,1,766.53,403.236Z" fill="#232b35"/>
      <path id="Path_39" data-name="Path 39" d="M781.5,402.979a7.568,7.568,0,0,1-1.771-5.343,7.7,7.7,0,0,1,1.757-5.385,8.169,8.169,0,0,1,10.542,0,7.707,7.707,0,0,1,1.756,5.385,7.569,7.569,0,0,1-1.771,5.343,8.175,8.175,0,0,1-10.513,0Zm8.314-1.486a6.149,6.149,0,0,0,1-3.857,6.27,6.27,0,0,0-1-3.9,3.653,3.653,0,0,0-3.057-1.272,3.608,3.608,0,0,0-3.042,1.272,6.328,6.328,0,0,0-.987,3.9,6.205,6.205,0,0,0,.987,3.857,3.623,3.623,0,0,0,3.042,1.257A3.667,3.667,0,0,0,789.813,401.493Z" fill="#232b35"/>
      <path id="Path_40" data-name="Path 40" d="M795.669,402.35h.714a.894.894,0,0,0,1.057-1.057v-7.371a1.18,1.18,0,0,0-.228-.8.99.99,0,0,0-.772-.258h-.6v-2.114h3.942l.4,1.572a3.006,3.006,0,0,1,1.471-1.229,5.984,5.984,0,0,1,2.128-.343H805.1v2.114h-1.6a3.074,3.074,0,0,0-2.313.729,3.178,3.178,0,0,0-.686,2.243v5.456a1.166,1.166,0,0,0,.229.814,1.023,1.023,0,0,0,.771.243h.714v2.114h-6.542Z" fill="#232b35"/>
      <path id="Path_41" data-name="Path 41" d="M808.1,408.207V406.15h2.656v1.028a3.572,3.572,0,0,0,2.771,1.029,2.838,2.838,0,0,0,2.243-.857,3.691,3.691,0,0,0,.757-2.514v-2.029a4.864,4.864,0,0,1-1.771,1.157,6.507,6.507,0,0,1-2.257.357,5.412,5.412,0,0,1-3.828-1.271,4.642,4.642,0,0,1-1.372-3.585v-5.543a.919.919,0,0,0-1.057-1.057h-.828v-2.114h4.914v8.8a2.461,2.461,0,0,0,2.771,2.8,3.293,3.293,0,0,0,2.371-.843,3.211,3.211,0,0,0,.885-2.442v-5.143a1.233,1.233,0,0,0-.213-.814.98.98,0,0,0-.757-.243h-.743v-2.114h4.77v13.456a6.02,6.02,0,0,1-1.557,4.342,5.553,5.553,0,0,1-4.214,1.629A7.672,7.672,0,0,1,808.1,408.207Z" fill="#232b35"/>
    </g>
    <g id="Group_10" data-name="Group 10">
      <path id="Path_42" data-name="Path 42" d="M663.073,413.952a3.915,3.915,0,0,1-1.779.01,27.944,27.944,0,0,1-8.546-3.177c-7.267-4.567-5.9-11.246-.7-11.408,5.12.314,6.183,6.538-.952,11.258a27.482,27.482,0,0,1-8.245,3.3,3.8,3.8,0,0,1-1.828.019c-3.257-.853-3.257-5.5-3.257-7.692V392.982a2.734,2.734,0,0,1,.873-2l10.652-9.9a4.049,4.049,0,0,1,5.514,0l10.651,9.9a2.73,2.73,0,0,1,.873,2V406.26C666.33,408.45,666.33,413.1,663.073,413.952Z" fill="#00973d"/>
      <path id="Path_43" data-name="Path 43" d="M651.681,410.085c-5.421-4.243-4.864-10.338.19-10.5,4.975.305,5.387,6.066-.19,10.5" fill="#fff"/>
      <path id="Path_44" data-name="Path 44" d="M653.78,399.848" fill="#1a1818" opacity="0.57" style="mix-blend-mode: multiply;isolation: isolate"/>
      <path id="Path_45" data-name="Path 45" d="M666.33,398.581a5.018,5.018,0,0,1-3.155.685c-.518-.043-1.037-.079-1.7-.128a4.517,4.517,0,0,0,2.59,1.091c-2.352,1.309-4.746.616-7.2.549a8.073,8.073,0,0,0-2.626.251l9.206-10.462a26.727,26.727,0,0,0-10.509,8.142c1.409-5.671,4.573-9.859,10.437-11.824.991-.331,1.974-.683,2.953-1.045" fill="#1a1818" opacity="0.57" style="mix-blend-mode: multiply;isolation: isolate"/>
      <g id="Path_46" data-name="Path 46" fill="#fff" stroke-miterlimit="10">
        <path d="M 651.9863891601562 404.177734375 C 653.9440307617188 397.9283142089844 657.9304809570312 393.2597351074219 661.197265625 389.8820495605469 L 661.0226440429688 389.6735534667969 C 657.659423828125 391.9375610351562 654.9669189453125 394.8483276367188 653.0111694335938 398.3325805664062 C 653.6318969726562 392.7767944335938 656.1112670898438 388.8896179199219 660.5762939453125 386.4621276855469 C 661.5726318359375 385.9205627441406 662.6134033203125 385.3248596191406 663.9508056640625 384.5305480957031 C 665.0553588867188 383.8739624023438 665.9478759765625 383.107666015625 666.7404174804688 382.1327514648438 C 667.9398193359375 387.0471496582031 667.602294921875 390.7671508789062 665.6553955078125 394.1629943847656 C 664.758544921875 395.7269897460938 663.5634765625 396.5158996582031 661.8944091796875 396.6456909179688 C 661.60302734375 396.6685485839844 661.3055419921875 396.694580078125 660.9906005859375 396.7221374511719 C 660.79052734375 396.7396545410156 660.5785522460938 396.7582092285156 660.3474731445312 396.7777709960938 L 659.9913940429688 396.8079223632812 L 660.2766723632812 397.0231628417969 C 660.969970703125 397.546142578125 661.7011108398438 397.6399536132812 662.4696044921875 397.6762390136719 C 660.670654296875 399.0757446289062 658.7031860351562 399.9285888671875 656.6165771484375 400.2125244140625 C 654.4496459960938 400.5072326660156 653.1842651367188 401.5108337402344 652.513671875 403.4666442871094 C 652.500732421875 403.5044555664062 652.4886474609375 403.5442199707031 652.4761962890625 403.5851440429688 C 652.4004516601562 403.8346557617188 652.3281860351562 404.0724792480469 651.9863891601562 404.177734375 Z" stroke="none"/>
        <path d="M 666.6709594726562 382.4297180175781 C 665.9119262695312 383.3182067871094 665.0586547851562 384.0310363769531 664.0206298828125 384.6481018066406 C 662.681640625 385.4433288574219 661.6395263671875 386.0398254394531 660.6416015625 386.5822448730469 C 656.4006958007812 388.8878784179688 653.9678344726562 392.5256042480469 653.2322387695312 397.6775207519531 C 655.1661987304688 394.4339904785156 657.7560424804688 391.7076721191406 660.9462890625 389.5601501464844 L 663.102783203125 388.1084899902344 L 661.2955322265625 389.9770812988281 C 658.1123046875 393.2684020996094 654.2438354492188 397.7884216308594 652.2510375976562 403.8023376464844 C 652.2901000976562 403.7275085449219 652.31640625 403.6409606933594 652.3453979492188 403.5454406738281 C 652.3582763671875 403.5029296875 652.370849609375 403.461669921875 652.3843383789062 403.4223022460938 C 652.7324829101562 402.4068603515625 653.2402954101562 401.6471862792969 653.9368286132812 401.0998840332031 C 654.6211547851562 400.5621032714844 655.49169921875 400.2275390625 656.59814453125 400.0770568847656 C 658.54833984375 399.8116760253906 660.3939208984375 399.0429992675781 662.09375 397.7894897460938 C 661.4371337890625 397.7344055175781 660.8057861328125 397.5935668945312 660.1943359375 397.1322937011719 L 659.623779296875 396.7018737792969 L 660.3359375 396.6415405273438 C 660.56689453125 396.6219787597656 660.7786865234375 396.6034240722656 660.9786987304688 396.5859375 C 661.2939453125 396.558349609375 661.5916748046875 396.5322875976562 661.8838500976562 396.5093994140625 C 663.5259399414062 396.3816833496094 664.6525268554688 395.6370544433594 665.5367431640625 394.094970703125 C 667.4298706054688 390.79296875 667.7854614257812 387.1768493652344 666.6709594726562 382.4297180175781 M 666.8060302734375 381.8299865722656 C 667.916015625 386.2139892578125 668.0339965820312 390.2890014648438 665.7739868164062 394.2309875488281 C 664.8720092773438 395.8039855957031 663.6669921875 396.6449890136719 661.905029296875 396.7820129394531 C 661.4329833984375 396.8190002441406 660.9609985351562 396.8630065917969 660.3590087890625 396.9140014648438 C 661.10400390625 397.4760131835938 661.8740234375 397.5199890136719 662.8419799804688 397.5539855957031 C 660.9140014648438 399.1319885253906 658.8469848632812 400.0469970703125 656.635009765625 400.3479919433594 C 654.5540161132812 400.6310119628906 653.302001953125 401.5889892578125 652.6430053710938 403.510986328125 C 652.5369873046875 403.8210144042969 652.489013671875 404.2739868164062 651.7880249023438 404.3569946289062 C 653.552001953125 398.5509948730469 657.0339965820312 393.989990234375 661.0989990234375 389.7869873046875 C 657.552978515625 392.1740112304688 654.7930297851562 395.2309875488281 652.8099975585938 398.9880065917969 C 653.27099609375 393.4559936523438 655.5189819335938 389.0559997558594 660.510986328125 386.3420104980469 C 661.6480102539062 385.7239990234375 662.7680053710938 385.0740051269531 663.8809814453125 384.4129943847656 C 664.9660034179688 383.7680053710938 665.927978515625 382.9649963378906 666.8060302734375 381.8299865722656 Z" stroke="none" fill="#313133"/>
      </g>
    </g>
  </g>
</svg>
