<svg id="synchronize" xmlns="http://www.w3.org/2000/svg" width="17" height="17" viewBox="0 0 17 17">
  <path id="Path_4371" data-name="Path 4371" d="M7.969,16.208H1.594A1.6,1.6,0,0,1,0,14.615V8.594A1.6,1.6,0,0,1,1.594,7H9.74a1.6,1.6,0,0,1,1.594,1.594v2.125a.531.531,0,0,1-1.062,0V8.594a.532.532,0,0,0-.531-.531H1.594a.532.532,0,0,0-.531.531v6.021a.532.532,0,0,0,.531.531H7.969a.531.531,0,1,1,0,1.062Z" transform="translate(0 -2.042)" fill="#4594e0"/>
  <path id="Path_4372" data-name="Path 4372" d="M9.552,6.021a.531.531,0,0,1-.531-.531V3.542a2.479,2.479,0,0,0-4.958,0V5.49A.531.531,0,0,1,3,5.49V3.542a3.542,3.542,0,1,1,7.083,0V5.49A.531.531,0,0,1,9.552,6.021Z" transform="translate(-0.875)" fill="#4594e0"/>
  <path id="Path_4373" data-name="Path 4373" d="M22.448,16.979H21.031a.531.531,0,1,1,0-1.062h.885v-.885a.531.531,0,0,1,1.063,0v1.417A.531.531,0,0,1,22.448,16.979Z" transform="translate(-5.979 -4.229)" fill="#4594e0"/>
  <path id="Path_4374" data-name="Path 4374" d="M14.531,22.479A.531.531,0,0,1,14,21.948V20.531A.531.531,0,0,1,14.531,20h1.417a.531.531,0,0,1,0,1.063h-.885v.885A.531.531,0,0,1,14.531,22.479Z" transform="translate(-4.083 -5.833)" fill="#4594e0"/>
  <path id="Path_4375" data-name="Path 4375" d="M14.721,17.188a.554.554,0,0,1-.154-.023.532.532,0,0,1-.354-.663,3.536,3.536,0,0,1,6.5-.626.532.532,0,1,1-.94.5,2.472,2.472,0,0,0-4.546.437A.531.531,0,0,1,14.721,17.188Z" transform="translate(-4.139 -4.083)" fill="#4594e0"/>
  <path id="Path_4376" data-name="Path 4376" d="M17.69,22.687a3.522,3.522,0,0,1-3.119-1.876.532.532,0,0,1,.94-.5,2.472,2.472,0,0,0,4.547-.441.531.531,0,0,1,1.014.315A3.528,3.528,0,0,1,17.69,22.687Z" transform="translate(-4.232 -5.687)" fill="#4594e0"/>
</svg>
