<svg xmlns="http://www.w3.org/2000/svg" width="19.285" height="19.285" viewBox="0 0 19.285 19.285">
  <g id="Layer_2" data-name="Layer 2" transform="translate(-1 -1)">
    <path id="Path_19" data-name="Path 19" d="M1,10.643a9.643,9.643,0,1,1,9.643,9.643A9.643,9.643,0,0,1,1,10.643Zm18,0A8.357,8.357,0,1,0,10.643,19,8.357,8.357,0,0,0,19,10.643Z" fill="#fff"/>
    <path id="Path_20" data-name="Path 20" d="M12.026,16.989,15.613,13.4,12.026,9.8a.643.643,0,0,1,0-.906h0a.643.643,0,0,1,.906,0l4.088,4.088a.585.585,0,0,1,0,.823L12.933,17.9a.643.643,0,0,1-.906,0h0A.643.643,0,0,1,12.026,16.989Z" transform="translate(-3.871 -2.753)" fill="#fff"/>
  </g>
</svg>
