<svg xmlns="http://www.w3.org/2000/svg" width="19.285" height="19.285" viewBox="0 0 19.285 19.285">
  <g id="Group_3680" data-name="Group 3680" transform="translate(-833.201 -360)">
    <g id="Layer_2" data-name="Layer 2" transform="translate(833.201 360)">
      <path id="Path_19" data-name="Path 19" d="M1,10.643a9.643,9.643,0,1,1,9.643,9.643A9.643,9.643,0,0,1,1,10.643Zm18,0A8.357,8.357,0,1,0,10.643,19,8.357,8.357,0,0,0,19,10.643Z" transform="translate(-1 -1)" fill="#fff"/>
    </g>
    <path id="iconfinder_add_134224" d="M10.179,5.775H7.033V2.629a.629.629,0,0,0-1.258,0V5.775H2.629a.629.629,0,0,0,0,1.258H5.775v3.146a.629.629,0,0,0,1.258,0V7.033h3.146a.629.629,0,0,0,0-1.258Z" transform="translate(836.201 363)" fill="#fff"/>
  </g>
</svg>
