<svg xmlns="http://www.w3.org/2000/svg" width="16.028" height="16.392" viewBox="0 0 16.028 16.392">
  <path id="iconfinder_alarm_clock_time_reminder_5310237" d="M37.17,26.172a6.791,6.791,0,0,0-6.783,6.783A6.719,6.719,0,0,0,32.3,37.671l-.9,1.1a.989.989,0,1,0,1.531,1.253l.942-1.151a6.789,6.789,0,0,0,6.61,0l.942,1.151a.989.989,0,1,0,1.531-1.253l-.9-1.1a6.719,6.719,0,0,0,1.909-4.717A6.791,6.791,0,0,0,37.17,26.172Zm0,1.978a4.8,4.8,0,1,1-4.8,4.8A4.81,4.81,0,0,1,37.17,28.15Zm7.286.957a.283.283,0,0,1-.4.035l-4.33-3.633a.283.283,0,0,1-.035-.4,3.109,3.109,0,1,1,4.763,4Zm-9.845-3.6-4.33,3.633a.283.283,0,0,1-.4-.035,3.109,3.109,0,1,1,4.763-4A.283.283,0,0,1,34.611,25.509Zm.957,8.828L36.6,32.783V29.935a.565.565,0,1,1,1.13,0v3.019s0,.006,0,.009,0,.031,0,.046,0,.012,0,.019,0,.024-.006.036,0,.016-.006.024,0,.02-.008.029-.007.019-.01.029l-.009.023c0,.011-.01.022-.016.033l-.008.017c-.007.014-.015.027-.024.04l0,.008h0v0L36.51,34.964a.565.565,0,0,1-.941-.627Z" transform="translate(-29.156 -24)" fill="#e57777"/>
</svg>
