<svg xmlns="http://www.w3.org/2000/svg" width="19.556" height="20" viewBox="0 0 19.556 20"><defs><style>.a{fill:#fff;}</style></defs><g transform="translate(-1095.444 -28)"><g transform="translate(1094.444 27.75)"><path class="a" d="M9.576,16.106l3.5-3.87a.249.249,0,0,1,.361,0l2.08,2.044a.261.261,0,0,0,.3.041L18.6,12.782a.255.255,0,0,1,.308.391l-3.526,3.87a.255.255,0,0,1-.361,0L12.936,14.98a.249.249,0,0,0-.3-.041L9.884,16.479a.249.249,0,0,1-.308-.373Z" transform="translate(-3.473 -4.852)"/><path class="a" d="M5.178,20.25a1.345,1.345,0,0,1-1.339-1.339V16.1A9.019,9.019,0,0,1,1,9.548,9.565,9.565,0,0,1,10.778.25a9.565,9.565,0,0,1,9.778,9.3,9.565,9.565,0,0,1-9.778,9.3,10.128,10.128,0,0,1-2.37-.284L5.859,20.054A1.327,1.327,0,0,1,5.178,20.25Zm5.6-18.519a8.085,8.085,0,0,0-8.3,7.816,7.55,7.55,0,0,0,2.406,5.505,1.327,1.327,0,0,1,.415.966v2.637l2.37-1.4A1.316,1.316,0,0,1,8.7,17.109a8.818,8.818,0,0,0,2.086.255,8.085,8.085,0,0,0,8.3-7.816A8.1,8.1,0,0,0,10.778,1.731ZM3.886,16.1Z"/></g></g></svg>