<svg xmlns="http://www.w3.org/2000/svg" width="22" height="22" viewBox="0 0 22 22"><defs><style>.a{fill:#fff;}.b{fill:none;}</style></defs><g transform="translate(2.063 2.063)"><path class="a" d="M9.875,16.75A6.875,6.875,0,1,1,16.75,9.875,6.875,6.875,0,0,1,9.875,16.75Zm0-12.375a5.5,5.5,0,1,0,5.5,5.5A5.5,5.5,0,0,0,9.875,4.375Z" transform="translate(-3 -3)"/><path class="a" d="M25.186,25.874a.688.688,0,0,1-.488-.2l-5.5-5.5a.69.69,0,1,1,.976-.976l5.5,5.5a.688.688,0,0,1-.488,1.176Z" transform="translate(-7.999 -7.999)"/></g><rect class="b" width="22" height="22"/></svg>