<svg xmlns="http://www.w3.org/2000/svg" width="20" height="20" viewBox="0 0 20 20"><defs><style>.a{fill:#fff;}</style></defs><g transform="translate(-2 -2)"><path class="a" d="M12,2A10,10,0,1,0,22,12,10,10,0,0,0,12,2Zm0,18.571A8.571,8.571,0,1,1,20.571,12,8.571,8.571,0,0,1,12,20.571Z"/><path class="a" d="M16,7H13.143A2.143,2.143,0,0,0,11,9.143v1.429h1.429V9.143a.714.714,0,0,1,.714-.714H16a.714.714,0,0,1,.714.714v.836a.714.714,0,0,1-.207.507l-2.021,2.021a2.143,2.143,0,0,0-.629,1.514v2.264h1.429V14.021a.714.714,0,0,1,.207-.507l2.021-2.021a2.143,2.143,0,0,0,.629-1.514V9.143A2.143,2.143,0,0,0,16,7Z" transform="translate(-2.571 -1.429)"/><ellipse class="a" cx="1" cy="1.5" rx="1" ry="1.5" transform="translate(11 16)"/></g></svg>