<svg xmlns="http://www.w3.org/2000/svg" width="12" height="12" viewBox="0 0 12 12">
  <g id="info-button" transform="translate(0 0)">
    <g id="Group_4083" data-name="Group 4083" transform="translate(0 0)">
      <path id="Path_4377" data-name="Path 4377" d="M10.243,1.757a6,6,0,1,0,0,8.486A6,6,0,0,0,10.243,1.757ZM6.782,8.609a.783.783,0,0,1-1.565,0V5.478a.783.783,0,1,1,1.565,0Zm-.8-4.468a.7.7,0,0,1-.742-.713A.7.7,0,0,1,6,2.7.72.72,0,1,1,5.986,4.14Z" transform="translate(0 0)" fill="#00a1ed"/>
    </g>
  </g>
</svg>
