<svg xmlns="http://www.w3.org/2000/svg" width="13.496" height="13.498" viewBox="0 0 13.496 13.498">
  <g id="iconfinder_time-passing_3339052" transform="translate(0.245 0.25)">
    <path id="Path_4315" data-name="Path 4315" d="M.222,6.717A.217.217,0,0,0,.438,6.5a6.064,6.064,0,0,1,9.816-4.767H9.105a.217.217,0,1,0,0,.433H10.82a.207.207,0,0,0,.042,0h.193V.217a.217.217,0,0,0-.433,0V1.476A6.495,6.495,0,0,0,0,6.5.217.217,0,0,0,.222,6.717Z" fill="#248875" stroke="#248875" stroke-width="0.5"/>
    <path id="Path_4316" data-name="Path 4316" d="M12.772,8a4.767,4.767,0,1,0,4.767,4.767A4.772,4.772,0,0,0,12.772,8Zm0,9.1a4.333,4.333,0,1,1,4.333-4.333A4.338,4.338,0,0,1,12.772,17.1Z" transform="translate(-6.267 -6.267)" fill="#248875" stroke="#248875" stroke-width="0.5"/>
    <path id="Path_4317" data-name="Path 4317" d="M29.222,11.867a.217.217,0,0,0,.217-.217v-.433a.217.217,0,1,0-.433,0v.433A.217.217,0,0,0,29.222,11.867Z" transform="translate(-22.716 -8.617)" fill="#248875" stroke="#248875" stroke-width="0.5"/>
    <path id="Path_4318" data-name="Path 4318" d="M29.222,45a.217.217,0,0,0-.217.217v.433a.217.217,0,0,0,.433,0v-.433A.217.217,0,0,0,29.222,45Z" transform="translate(-22.716 -35.25)" fill="#248875" stroke="#248875" stroke-width="0.5"/>
    <path id="Path_4319" data-name="Path 4319" d="M45.222,29.433h.433a.217.217,0,1,0,0-.433h-.433a.217.217,0,0,0,0,.433Z" transform="translate(-35.25 -22.716)" fill="#248875" stroke="#248875" stroke-width="0.5"/>
    <path id="Path_4320" data-name="Path 4320" d="M11.655,29h-.433a.217.217,0,0,0,0,.433h.433a.217.217,0,0,0,0-.433Z" transform="translate(-8.617 -22.716)" fill="#248875" stroke="#248875" stroke-width="0.5"/>
    <path id="Path_4321" data-name="Path 4321" d="M20.822,20.331V19.217a.217.217,0,0,0-.433,0v1.114a.866.866,0,0,0-.65.836.855.855,0,0,0,.123.437L18.068,23.4a.217.217,0,1,0,.306.306l1.793-1.793a.855.855,0,0,0,.437.123.865.865,0,0,0,.217-1.7ZM20.6,21.6a.433.433,0,1,1,.433-.433A.434.434,0,0,1,20.6,21.6Z" transform="translate(-14.1 -14.883)" fill="#248875" stroke="#248875" stroke-width="0.5"/>
    <path id="Path_4322" data-name="Path 4322" d="M11.739,52.34a.216.216,0,0,0,.046.3.21.21,0,0,0,.128.041.214.214,0,0,0,.176-.087.219.219,0,0,0-.046-.3A.216.216,0,0,0,11.739,52.34Z" transform="translate(-9.158 -40.93)" fill="#248875" stroke="#248875" stroke-width="0.5"/>
    <path id="Path_4323" data-name="Path 4323" d="M5.812,45.946a.217.217,0,1,0-.176.345.214.214,0,0,0,.126-.041A.218.218,0,0,0,5.812,45.946Z" transform="translate(-4.24 -35.92)" fill="#248875" stroke="#248875" stroke-width="0.5"/>
    <path id="Path_4324" data-name="Path 4324" d="M7.362,48.255a.216.216,0,0,0-.017.305.209.209,0,0,0,.163.074.217.217,0,1,0-.145-.379Z" transform="translate(-5.706 -37.757)" fill="#248875" stroke="#248875" stroke-width="0.5"/>
    <path id="Path_4325" data-name="Path 4325" d="M9.751,50.4a.217.217,0,1,0-.147.377.222.222,0,0,0,.16-.069.216.216,0,0,0-.013-.306Z" transform="translate(-7.35 -39.433)" fill="#248875" stroke="#248875" stroke-width="0.5"/>
    <path id="Path_4326" data-name="Path 4326" d="M4.206,43.444h0a.216.216,0,1,0-.186.323.211.211,0,0,0,.106-.028A.217.217,0,0,0,4.206,43.444Z" transform="translate(-2.973 -33.945)" fill="#248875" stroke="#248875" stroke-width="0.5"/>
    <path id="Path_4327" data-name="Path 4327" d="M58.192,30.553H58.2a.213.213,0,1,0-.009,0Z" transform="translate(-45.417 -23.593)" fill="#248875" stroke="#248875" stroke-width="0.5"/>
    <path id="Path_4328" data-name="Path 4328" d="M.4,32.426a.217.217,0,0,0-.046-.431.216.216,0,0,0,.022.431Z" transform="translate(-0.121 -25.061)" fill="#248875" stroke="#248875" stroke-width="0.5"/>
    <path id="Path_4329" data-name="Path 4329" d="M.882,35.383a.217.217,0,1,0-.046,0A.163.163,0,0,0,.882,35.383Z" transform="translate(-0.483 -27.382)" fill="#248875" stroke="#248875" stroke-width="0.5"/>
    <path id="Path_4330" data-name="Path 4330" d="M2.866,40.785a.217.217,0,0,0-.4.175.22.22,0,0,0,.2.13.207.207,0,0,0,.087-.02A.218.218,0,0,0,2.866,40.785Z" transform="translate(-1.916 -31.847)" fill="#248875" stroke="#248875" stroke-width="0.5"/>
    <path id="Path_4331" data-name="Path 4331" d="M1.808,38a.214.214,0,0,0-.271-.141.216.216,0,0,0,.065.423.238.238,0,0,0,.067-.009A.218.218,0,0,0,1.808,38Z" transform="translate(-1.081 -29.65)" fill="#248875" stroke="#248875" stroke-width="0.5"/>
    <path id="Path_4332" data-name="Path 4332" d="M28.666,57.99a.217.217,0,1,0-.009.433h0a.215.215,0,0,0,.217-.212A.217.217,0,0,0,28.666,57.99Z" transform="translate(-22.278 -45.425)" fill="#248875" stroke="#248875" stroke-width="0.5"/>
    <path id="Path_4333" data-name="Path 4333" d="M51.969,46.834a.217.217,0,0,0,.037.3.223.223,0,0,0,.134.046.216.216,0,1,0-.171-.349Z" transform="translate(-40.669 -36.62)" fill="#248875" stroke="#248875" stroke-width="0.5"/>
    <path id="Path_4334" data-name="Path 4334" d="M45.5,52.943a.216.216,0,0,0-.054.3.213.213,0,0,0,.178.093.216.216,0,1,0-.124-.394Z" transform="translate(-35.562 -41.442)" fill="#248875" stroke="#248875" stroke-width="0.5"/>
    <path id="Path_4335" data-name="Path 4335" d="M47.86,51.131a.216.216,0,0,0-.024.306.217.217,0,1,0,.024-.306Z" transform="translate(-37.427 -40.012)" fill="#248875" stroke="#248875" stroke-width="0.5"/>
    <path id="Path_4336" data-name="Path 4336" d="M53.965,44.323a.217.217,0,0,0-.23.368.223.223,0,0,0,.115.033.214.214,0,0,0,.184-.1A.217.217,0,0,0,53.965,44.323Z" transform="translate(-42.008 -34.694)" fill="#248875" stroke="#248875" stroke-width="0.5"/>
    <path id="Path_4337" data-name="Path 4337" d="M50.024,49.089a.214.214,0,0,0,.007.306.215.215,0,0,0,.306-.007.216.216,0,1,0-.312-.3Z" transform="translate(-39.134 -38.4)" fill="#248875" stroke="#248875" stroke-width="0.5"/>
    <path id="Path_4338" data-name="Path 4338" d="M57.961,33.1a.219.219,0,0,0-.245.184.216.216,0,0,0,.184.245.153.153,0,0,0,.03,0,.217.217,0,0,0,.03-.431Z" transform="translate(-45.204 -25.927)" fill="#248875" stroke="#248875" stroke-width="0.5"/>
    <path id="Path_4339" data-name="Path 4339" d="M57.407,36.047a.218.218,0,0,0-.106.423.2.2,0,0,0,.052.006.218.218,0,0,0,.054-.429Z" transform="translate(-44.753 -28.232)" fill="#248875" stroke="#248875" stroke-width="0.5"/>
    <path id="Path_4340" data-name="Path 4340" d="M14.517,53.95a.217.217,0,0,0-.223.373.208.208,0,0,0,.111.03.218.218,0,0,0,.113-.4Z" transform="translate(-11.111 -42.237)" fill="#248875" stroke="#248875" stroke-width="0.5"/>
    <path id="Path_4341" data-name="Path 4341" d="M56.553,38.923a.217.217,0,0,0-.15.407.22.22,0,0,0,.074.013.217.217,0,0,0,.076-.421Z" transform="translate(-44.067 -30.479)" fill="#248875" stroke="#248875" stroke-width="0.5"/>
    <path id="Path_4342" data-name="Path 4342" d="M55.4,41.691a.217.217,0,0,0-.191.39.212.212,0,0,0,.1.022.217.217,0,0,0,.1-.412Z" transform="translate(-43.146 -32.641)" fill="#248875" stroke="#248875" stroke-width="0.5"/>
    <path id="Path_4343" data-name="Path 4343" d="M25.7,57.784a.216.216,0,1,0-.052.429v0h.026a.216.216,0,0,0,.026-.431Z" transform="translate(-19.937 -45.262)" fill="#248875" stroke="#248875" stroke-width="0.5"/>
    <path id="Path_4344" data-name="Path 4344" d="M19.907,56.456a.217.217,0,0,0-.141.41.273.273,0,0,0,.072.011.216.216,0,0,0,.069-.42Z" transform="translate(-15.365 -44.214)" fill="#248875" stroke="#248875" stroke-width="0.5"/>
    <path id="Path_4345" data-name="Path 4345" d="M22.766,57.271a.217.217,0,1,0-.1.423.194.194,0,0,0,.05,0,.216.216,0,0,0,.048-.427Z" transform="translate(-17.622 -44.857)" fill="#248875" stroke="#248875" stroke-width="0.5"/>
    <path id="Path_4346" data-name="Path 4346" d="M17.15,55.344a.215.215,0,0,0-.288.1.217.217,0,0,0,.1.288.226.226,0,0,0,.091.02.216.216,0,0,0,.093-.411Z" transform="translate(-13.189 -43.335)" fill="#248875" stroke="#248875" stroke-width="0.5"/>
    <path id="Path_4347" data-name="Path 4347" d="M34.585,57.5a.216.216,0,0,0,.041.429.214.214,0,0,0,.039,0,.219.219,0,0,0,.173-.254A.217.217,0,0,0,34.585,57.5Z" transform="translate(-26.949 -45.036)" fill="#248875" stroke="#248875" stroke-width="0.5"/>
    <path id="Path_4348" data-name="Path 4348" d="M37.476,56.8a.214.214,0,0,0-.145.268.218.218,0,0,0,.208.154.227.227,0,0,0,.063-.009.216.216,0,1,0-.126-.414Z" transform="translate(-29.231 -44.483)" fill="#248875" stroke="#248875" stroke-width="0.5"/>
    <path id="Path_4349" data-name="Path 4349" d="M40.283,55.79a.216.216,0,0,0,.082.416.237.237,0,0,0,.085-.015.217.217,0,0,0-.167-.4Z" transform="translate(-31.446 -43.689)" fill="#248875" stroke="#248875" stroke-width="0.5"/>
    <path id="Path_4350" data-name="Path 4350" d="M31.638,57.9a.217.217,0,0,0,.02.433h.017v0a.213.213,0,0,0,.2-.232A.218.218,0,0,0,31.638,57.9Z" transform="translate(-24.624 -45.352)" fill="#248875" stroke="#248875" stroke-width="0.5"/>
    <path id="Path_4351" data-name="Path 4351" d="M42.962,54.5a.217.217,0,0,0,.1.407.2.2,0,0,0,.1-.028.216.216,0,1,0-.206-.379Z" transform="translate(-33.56 -42.671)" fill="#248875" stroke="#248875" stroke-width="0.5"/>
  </g>
</svg>
