<svg id="iconfinder_Search_4781817" xmlns="http://www.w3.org/2000/svg" width="22" height="22" viewBox="0 0 22 22">
  <g id="Layer_2" data-name="Layer 2" transform="translate(2.063 2.063)">
    <path id="Path_15" data-name="Path 15" d="M9.875,16.75A6.875,6.875,0,1,1,16.75,9.875,6.875,6.875,0,0,1,9.875,16.75Zm0-12.375a5.5,5.5,0,1,0,5.5,5.5A5.5,5.5,0,0,0,9.875,4.375Z" transform="translate(-3 -3)" fill="#a4bbc1"/>
    <path id="Path_16" data-name="Path 16" d="M25.186,25.874a.688.688,0,0,1-.488-.2l-5.5-5.5a.69.69,0,1,1,.976-.976l5.5,5.5a.688.688,0,0,1-.488,1.176Z" transform="translate(-7.999 -7.999)" fill="#a4bbc1"/>
  </g>
  <g id="frame">
    <rect id="Rectangle_75" data-name="Rectangle 75" width="22" height="22" fill="none"/>
  </g>
</svg>
