<svg xmlns="http://www.w3.org/2000/svg" width="16.656" height="16.572" viewBox="0 0 16.656 16.572">
  <g id="edit" transform="translate(0 -0.261)">
    <path id="Path_4368" data-name="Path 4368" d="M15.372,47.958a.415.415,0,0,0-.415.415v3.683A1.246,1.246,0,0,1,13.713,53.3H2.074A1.246,1.246,0,0,1,.83,52.055V41.246A1.246,1.246,0,0,1,2.074,40H5.757a.415.415,0,0,0,0-.83H2.074A2.076,2.076,0,0,0,0,41.246v10.81A2.076,2.076,0,0,0,2.074,54.13H13.713a2.076,2.076,0,0,0,2.074-2.074V48.372A.415.415,0,0,0,15.372,47.958Zm0,0" transform="translate(0 -37.297)" fill="#4594e0"/>
    <path id="Path_4369" data-name="Path 4369" d="M119.325.807a1.867,1.867,0,0,0-2.64,0l-7.4,7.4a.415.415,0,0,0-.106.183L108.2,11.9a.415.415,0,0,0,.51.511l3.513-.973a.415.415,0,0,0,.183-.106l7.4-7.4a1.869,1.869,0,0,0,0-2.64Zm-9.137,7.67,6.057-6.057L118.2,4.374l-6.057,6.057Zm-.39.783,1.561,1.561-2.159.6Zm9.427-5.913-.44.44-1.954-1.953.44-.44a1.037,1.037,0,0,1,1.466,0l.487.487A1.039,1.039,0,0,1,119.225,3.348Zm0,0" transform="translate(-103.702)" fill="#4594e0"/>
  </g>
</svg>
