<svg viewBox="0 0 32.75 37.276" width="32.75" height="37.276">
  <defs>
    <style>.a,.d{fill:#00a1ed;}.b,.e{fill:#45aa56;}.c{fill:#fff;}.d,.e{opacity:0.5;}</style>
  </defs>
  <g>
    <path class="a" d="M139.831,297.561h-.983c-.983,0-1.376-1.663-.589-2.253l2.429-1.5a2.787,2.787,0,0,1,1.006-3.827l7.932-4.579-12.192-7.039a2.789,2.789,0,0,0-4.183,2.415v23.237a2.789,2.789,0,0,0,4.183,2.415l2.886-1.666a3.667,3.667,0,0,1-.489-1.789Z" transform="translate(-133.251 -269.527)"></path>
    <path class="b" d="M190.494,278.362,178.3,285.4l7.932,4.579a2.788,2.788,0,0,1,1.02,3.808l2.483,1.519c.688.59.3,2.253-.59,2.253h-.983v5.413a3.673,3.673,0,0,1-.506,1.819l2.834,1.636a2.789,2.789,0,0,0,4.183-2.415V280.778A2.789,2.789,0,0,0,190.494,278.362Z" transform="translate(-161.928 -269.527)"></path>
    <path class="d" d="M153.04,306.8l7.695-4.754a2.23,2.23,0,0,1,2.457,0l7.739,4.735a2.788,2.788,0,0,0-1.02-3.808l-7.932-4.579-7.932,4.579A2.787,2.787,0,0,0,153.04,306.8Z" transform="translate(-145.604 -282.516)"></path>
    <path class="e" d="M153.04,306.8l7.695-4.754a2.23,2.23,0,0,1,2.457,0l7.739,4.735a2.788,2.788,0,0,0-1.02-3.808l-7.932-4.579-7.932,4.579A2.787,2.787,0,0,0,153.04,306.8Z" transform="translate(-145.604 -282.516)"></path>
    <circle class="b" cx="4" cy="4" r="4" transform="translate(0)"></circle>
    <circle class="a" cx="3.843" cy="3.843" r="3.843" transform="translate(25.064)"></circle>
  </g>
</svg>